<svg width="503" height="503" viewBox="0 0 503 503" fill="none" xmlns="http://www.w3.org/2000/svg">
<g clip-path="url(#clip0_3_21)">
<path d="M102.56 400.31L16.56 314.31C6.32 303.82 0 289 0 274.58C0 267.89 3.77 257.42 6.62 251.43L86 86L102.56 400.31Z" fill="#868E96"/>
<path d="M397 102.56L311 16.56C303.49 9 287.85 0 274.61 0C263.23 0 252.06 2.29 244.85 6.62L86.07 86L397 102.56Z" fill="#868E96" fill-opacity="0.81"/>
<path d="M205.11 502.87H413.55V413.55L258.05 363.9L115.79 413.55L205.11 502.87Z" fill="#868E96" fill-opacity="0.81"/>
<path d="M86 354C86 380.54 89.33 387.05 102.53 400.32L115.76 413.56H413.55L268 248.14L86 86V354Z" fill="#868E96" fill-opacity="0.48"/>
<path d="M350.7 86H86L413.55 413.51H502.87V208.4L397 102.52C382.12 87.62 368.92 86 350.7 86Z" fill="#868E96"/>
<path opacity="0.2" d="M105.88 403.6C92.65 390.33 89.36 377.24 89.36 354V89.32L86.07 86V354C86.07 377.25 86.07 383.69 105.88 403.61L115.79 413.52L105.88 403.6Z" fill="white"/>
<path opacity="0.2" d="M499.58 205.11V410.22H410.26L413.55 413.55H502.87V208.4L499.58 205.11Z" fill="#263238"/>
<path opacity="0.2" d="M397 102.56C380.61 86.14 367.19 86 347.41 86H86.07L89.36 89.29H347.41C357.28 89.29 382.2 87.63 397.02 102.53L397 102.56Z" fill="white"/>
<path opacity="0.2" d="M499.58 205.11L397 102.56L311 16.56C303.49 9 287.85 0 274.61 0C263.23 0 252.06 2.29 244.85 6.62L86.07 86L6.65 251.43C3.81 257.46 0 267.92 0 274.58C0 289.03 6.36 303.78 16.52 314.28L95.83 393C97.9404 395.559 100.187 398.003 102.56 400.32L105.85 403.61L115.75 413.52L201.75 499.52L205.04 502.81H413.44V413.51H502.76V208.4L499.58 205.11Z" fill="url(#paint0_radial_3_21)"/>
</g>
<defs>
<radialGradient id="paint0_radial_3_21" cx="0" cy="0" r="1" gradientUnits="userSpaceOnUse" gradientTransform="translate(251.42 251.41) scale(251.4 251.4)">
<stop stop-color="white" stop-opacity="0.1"/>
<stop offset="1" stop-color="white" stop-opacity="0"/>
</radialGradient>
<clipPath id="clip0_3_21">
<rect width="502.87" height="502.87" fill="white"/>
</clipPath>
</defs>
</svg>
