<svg width="512" height="512" viewBox="0 0 512 512" fill="none" xmlns="http://www.w3.org/2000/svg">
<path d="M340.812 96C338.3 96 336 98.0125 336 100.812V188.75L316.062 177.125C314.814 176.389 313.408 176.031 312 176.031C310.592 176.031 309.186 176.389 307.938 177.125L260.031 205.062C257.535 206.503 256 209.167 256 212.031V267.969C256 270.849 257.535 273.497 260.031 274.938L307.938 302.875C309.186 303.611 310.592 303.969 312 303.969C313.408 303.969 314.814 303.611 316.062 302.875L363.969 274.938C366.465 273.497 368 270.833 368 267.969V240V212.031V115.688C368 112.839 366.479 110.221 364.031 108.781L343.188 96.6562C342.404 96.2082 341.613 96 340.812 96ZM184 176.031C182.596 176.031 181.194 176.397 179.938 177.125L132.031 205.062C129.535 206.503 128 209.167 128 212.031V267.969C128 270.849 129.535 273.497 132.031 274.938L179.938 302.875C182.45 304.331 185.55 304.331 188.062 302.875L235.969 274.938C238.465 273.497 240 270.833 240 267.969V212.031C240 209.151 238.465 206.503 235.969 205.062L188.062 177.125C186.806 176.397 185.404 176.031 184 176.031ZM440 176.031C438.592 176.031 437.186 176.389 435.938 177.125L388.031 205.062C385.535 206.503 384 209.167 384 212.031V267.969C384 270.849 385.535 273.497 388.031 274.938L434.5 303.031C436.996 304.551 440.128 304.566 442.656 303.094L465.5 289.812C467.868 288.452 467.884 285.017 465.5 283.625L416 254.469V225.75L440 211.781L464 225.75V245.75C464 248.422 466.246 248.834 467.75 247.938C473.798 244.385 492.031 233.812 492.031 233.812C494.479 232.388 496 229.754 496 226.906V212.031C496 209.151 494.465 206.503 491.969 205.062L444.062 177.125C442.798 176.389 441.408 176.031 440 176.031ZM56 176.062C54.592 176.062 53.1855 176.42 51.9375 177.156L4.03125 205.062C1.53525 206.518 0 209.182 0 212.062V283.469C0 286.957 3.77325 289.119 6.78125 287.375L28.0312 275C30.4792 273.56 32 270.942 32 268.094V225.812L56 211.812L80 225.812V268.094C80 270.942 81.5208 273.56 83.9688 275L105.219 287.375C108.227 289.135 112 286.957 112 283.469V212.062C112 209.182 110.465 206.518 107.969 205.062L60.0625 177.156C58.8145 176.42 57.408 176.062 56 176.062ZM312 211.781L336 225.781V240V254.219L312 268.219L288 254.219V225.781L312 211.781ZM440 224.062L426.281 232.062V248.031L440 256L453.719 248.031V232.062L440 224.062ZM246.5 287.969C244.854 287.969 243.19 288.372 241.75 289.188L196.75 315.188C193.79 316.819 192 320.031 192 323.375V375.312C192 378.657 193.87 381.804 196.75 383.5L208.594 390.25C214.274 393.05 216.362 393.062 218.938 393.062C227.417 393.062 232.25 387.991 232.25 379.031V327.719C232.25 326.935 231.641 326.375 230.938 326.375H225.25C224.466 326.375 223.906 327.015 223.906 327.719V379.031C223.906 382.919 219.798 386.907 213.094 383.562L200.781 376.469C200.381 376.229 200.094 375.745 200.094 375.281V323.344C200.094 322.88 200.317 322.334 200.781 322.094L245.781 296.156C246.261 295.916 246.803 295.916 247.188 296.156L292.219 322.094C292.683 322.334 292.906 322.8 292.906 323.344V375.281C292.906 375.825 292.603 376.291 292.219 376.531L247.188 402.562C246.787 402.802 246.165 402.802 245.781 402.562L234.281 395.719C233.977 395.559 233.491 395.465 233.188 395.625C230.003 397.497 229.366 397.742 226.406 398.75C225.622 398.99 224.556 399.471 226.812 400.719L241.75 409.594C243.238 410.378 244.868 410.844 246.5 410.844C248.212 410.844 249.875 410.379 251.188 409.531L296.188 383.5C299.148 381.868 300.938 378.657 300.938 375.312V323.375C300.938 320.031 299.068 316.9 296.188 315.188L251.188 289.188C249.788 288.372 248.146 287.969 246.5 287.969ZM316.688 311.938C312.095 311.938 308.062 315.65 308.062 320.562C308.062 325.314 311.936 329.219 316.688 329.219C321.439 329.219 325.312 325.314 325.312 320.562C325.312 315.65 321.359 311.858 316.688 311.938ZM316.594 313.312C320.658 313.312 323.938 316.515 323.938 320.562C323.938 324.53 320.642 327.81 316.594 327.906C312.61 327.906 309.375 324.61 309.375 320.562C309.375 316.515 312.626 313.312 316.594 313.312ZM313.438 315.656V325.375H315.281V321.5H317C317.704 321.5 317.871 321.8 318.031 322.344C318.031 322.424 318.326 324.942 318.406 325.406H320.406C320.182 324.942 320.017 323.613 319.938 322.812C319.713 321.564 319.64 320.705 318.312 320.625C319.016 320.385 320.188 320.011 320.188 318.219C320.188 315.643 317.949 315.656 316.781 315.656H313.438ZM315.281 317.219H316.844C317.324 317.219 318.25 317.203 318.25 318.531C318.25 319.075 318.014 319.954 316.75 319.938H315.281V317.219ZM258.562 325.156C245.715 325.156 238.094 330.632 238.094 339.656C238.094 349.544 245.727 352.189 258.031 353.438C272.751 354.91 273.906 357.026 273.906 359.906C273.906 364.962 269.848 367.062 260.344 367.062C248.424 367.062 245.802 364.108 244.938 358.188C244.858 357.563 244.298 357.094 243.594 357.094H237.75C237.046 357.094 236.438 357.654 236.438 358.438C236.438 365.99 240.554 375.031 260.25 375.031C274.698 375.015 282.875 369.418 282.875 359.594C282.875 349.866 276.325 347.278 262.469 345.406C248.453 343.534 247.062 342.592 247.062 339.312C247.062 336.592 248.21 333.031 258.562 333.031C267.826 333.031 271.28 335.057 272.688 341.281C272.847 341.905 273.282 342.281 273.906 342.281H279.75C280.134 342.281 280.463 342.13 280.688 341.906C280.927 341.602 281.08 341.29 281 340.906C280.072 330.154 272.979 325.156 258.562 325.156Z" fill="#868E96"/>
</svg>
