<svg width="240" height="240" viewBox="0 0 240 240" fill="none" xmlns="http://www.w3.org/2000/svg">
<path d="M120.035 227.095C117.165 227.095 114.32 226.345 111.805 224.895L85.605 209.38C81.69 207.19 83.6 206.415 84.89 205.97C90.11 204.145 91.165 203.73 96.735 200.565C97.32 200.23 98.085 200.35 98.685 200.705L118.815 212.65C119.54 213.045 120.575 213.045 121.245 212.65L199.73 167.345C200.455 166.93 200.93 166.09 200.93 165.225V74.66C200.93 73.755 200.46 72.95 199.715 72.5L121.265 27.23C120.54 26.8 119.575 26.8 118.85 27.23L40.41 72.495C39.65 72.925 39.165 73.77 39.165 74.635V165.205C39.165 166.07 39.635 166.895 40.385 167.305L61.88 179.72C73.55 185.555 80.68 178.68 80.68 171.765V82.38C80.68 81.105 81.68 80.12 82.96 80.12H92.9C94.14 80.12 95.16 81.1 95.16 82.38V171.81C95.16 187.37 86.675 196.31 71.92 196.31C67.38 196.31 63.805 196.31 53.825 191.4L33.235 179.535C28.145 176.585 25 171.08 25 165.21V74.64C25 68.745 28.145 63.245 33.23 60.335L111.8 15.01C116.77 12.2 123.37 12.2 128.305 15.01L206.775 60.355C211.835 63.28 215 68.765 215 74.66V165.23C215 171.105 211.835 176.585 206.77 179.535L128.3 224.855C125.785 226.31 122.935 227.055 120.03 227.055" fill="#868E96"/>
<path d="M144.28 164.685C109.94 164.685 102.74 148.92 102.74 135.7C102.74 134.445 103.755 133.44 105.015 133.44H115.155C116.275 133.44 117.22 134.255 117.395 135.36C118.925 145.69 123.485 150.9 144.25 150.9C160.79 150.9 167.825 147.165 167.825 138.39C167.825 133.34 165.82 129.59 140.125 127.075C118.63 124.955 105.35 120.22 105.35 103.03C105.35 87.195 118.71 77.765 141.085 77.765C166.215 77.765 178.67 86.49 180.24 105.23C180.3 105.88 180.065 106.505 179.63 106.98C179.2 107.43 178.59 107.705 177.96 107.705H167.765C166.705 107.705 165.78 106.96 165.565 105.935C163.11 95.07 157.175 91.595 141.045 91.595C122.99 91.595 120.89 97.88 120.89 102.595C120.89 108.31 123.365 109.98 147.725 113.205C171.85 116.405 183.305 120.925 183.305 137.88C183.305 154.97 169.04 164.775 144.17 164.775" fill="#868E96"/>
</svg>
