<svg width="480" height="480" viewBox="0 0 480 480" fill="none" xmlns="http://www.w3.org/2000/svg">
<path d="M279 240C279 261.558 261.558 279 240 279C218.442 279 201 261.558 201 240C201 218.442 218.442 201 240 201C261.558 201 279 218.442 279 240Z" fill="#868E96"/>
<path d="M240 282C216.846 282 198 263.16 198 240C198 216.84 216.846 198 240 198C263.154 198 282 216.84 282 240C282 263.16 263.154 282 240 282ZM240 204C220.146 204 204 220.146 204 240C204 259.854 220.146 276 240 276C259.854 276 276 259.854 276 240C276 220.146 259.854 204 240 204Z" fill="#868E96"/>
<path d="M146.844 453.018C136.578 453.018 127.23 450.666 119.052 446.034C105.372 438.276 95.916 424.908 90.936 406.314C85.146 384.672 85.836 355.926 92.928 323.046C35.736 303.372 3 273.186 3 240C3 206.808 35.73 176.628 92.922 156.96C85.83 124.074 85.134 95.328 90.924 73.686C95.904 55.086 105.36 41.718 119.034 33.966C127.206 29.334 136.56 26.982 146.826 26.982C173.154 26.982 206.172 43.362 240.012 73.17C273.852 43.392 306.858 27.024 333.156 27.024C343.422 27.024 352.77 29.376 360.948 34.008C374.61 41.754 384.072 55.098 389.052 73.674C394.848 95.31 394.152 124.062 387.054 156.954C444.258 176.622 477 206.808 477 240C477 273.192 444.258 303.378 387.054 323.052C394.146 355.938 394.842 384.684 389.046 406.32C384.066 424.902 374.616 438.246 360.966 445.992C352.782 450.624 343.428 452.976 333.168 452.976C306.852 452.976 273.834 436.608 240.006 406.842C206.166 436.644 173.154 453.018 146.844 453.018ZM116.022 330.036C110.076 358.338 109.41 382.518 114.126 400.11C117.378 412.266 123.012 420.696 130.89 425.16C135.408 427.722 140.778 429.024 146.844 429.024C167.208 429.024 194.016 415.332 222.57 390.402C208.26 375.99 194.292 359.676 181.002 341.856C158.016 339.36 136.176 335.388 116.022 330.036ZM257.436 390.39C285.984 415.296 312.798 428.976 333.162 428.982C339.228 428.982 344.598 427.68 349.128 425.118C356.982 420.666 362.604 412.254 365.85 400.116C370.566 382.512 369.906 358.338 363.96 330.042C343.788 335.394 321.942 339.366 298.962 341.862C285.678 359.682 271.728 375.99 257.436 390.39ZM213.396 344.358C222.108 355.014 231.024 364.956 240 373.998C248.952 364.962 257.874 355.02 266.58 344.358C257.634 344.784 248.724 345 240 345C231.27 345 222.354 344.784 213.396 344.358ZM194.094 319.074C209.064 320.352 224.502 321 240 321C255.51 321 270.93 320.352 285.876 319.08C294.792 306.576 303.294 293.472 311.16 280.11C318.768 267.18 325.926 253.686 332.442 239.994C325.944 226.338 318.792 212.85 311.166 199.89C303.318 186.558 294.816 173.454 285.876 160.92C270.942 159.648 255.522 159 240 159C224.472 159 209.046 159.648 194.118 160.926C185.178 173.442 176.664 186.546 168.804 199.896C161.184 212.85 154.032 226.338 147.528 240.012C154.02 253.656 161.172 267.144 168.798 280.116C176.622 293.406 185.124 306.504 194.094 319.074ZM344.946 268.674C340.71 276.75 336.318 284.67 331.836 292.278C327.318 299.97 322.512 307.686 317.52 315.294C331.764 313.098 345.39 310.284 358.146 306.894C354.606 294.6 350.172 281.778 344.946 268.674ZM121.824 306.888C134.586 310.272 148.206 313.092 162.432 315.288C157.41 307.632 152.604 299.91 148.116 292.278C143.646 284.676 139.248 276.768 135.018 268.692C129.816 281.736 125.388 294.546 121.824 306.888ZM358.896 240C368.064 260.346 375.534 280.458 381.144 299.862C425.556 284.238 453 261.444 453 240C453 218.556 425.556 195.762 381.144 180.138C375.546 199.542 368.07 219.654 358.896 240ZM98.832 180.15C54.438 195.768 27 218.562 27 240C27 261.444 54.438 284.238 98.844 299.856C104.448 280.446 111.918 260.334 121.074 240.012C111.912 219.684 104.442 199.572 98.832 180.15ZM121.818 173.112C125.382 185.436 129.81 198.252 135.018 211.32C139.242 203.268 143.634 195.354 148.122 187.728C152.634 180.054 157.44 172.338 162.45 164.712C148.206 166.902 134.586 169.722 121.818 173.112ZM317.532 164.706C322.554 172.368 327.36 180.084 331.848 187.728C336.324 195.33 340.722 203.244 344.958 211.32C350.172 198.258 354.6 185.442 358.164 173.106C345.384 169.716 331.764 166.896 317.532 164.706ZM146.826 50.982C140.76 50.982 135.396 52.278 130.884 54.846C123.012 59.31 117.372 67.74 114.114 79.896C109.404 97.506 110.064 121.68 116.016 149.97C136.176 144.618 158.028 140.64 181.02 138.144C194.322 120.318 208.29 104.016 222.582 89.616C194.022 64.674 167.196 50.982 146.826 50.982ZM298.968 138.138C321.948 140.634 343.794 144.606 363.966 149.958C369.918 121.662 370.584 97.482 365.862 79.878C362.61 67.746 356.982 59.334 349.122 54.882C344.598 52.32 339.228 51.018 333.156 51.018C312.798 51.018 285.996 64.704 257.442 89.616C271.722 104.01 285.678 120.318 298.968 138.138ZM240 135C248.724 135 257.634 135.216 266.586 135.642C257.886 124.998 248.97 115.062 240.012 106.014C231.03 115.074 222.12 125.01 213.42 135.642C222.366 135.216 231.276 135 240 135Z" fill="#868E96"/>
<path d="M146.826 29.982C173.79 29.982 206.802 47.442 240.018 77.184C273.228 47.466 306.222 30.024 333.162 30.024C342.9 30.024 351.756 32.244 359.478 36.618C372.414 43.95 381.39 56.676 386.154 74.454C392.616 97.956 391.26 126.894 383.55 158.934C438.882 177.42 474 206.586 474 240C474 273.414 438.882 302.58 383.544 321.072C391.59 355.71 392.94 385.428 386.148 405.546C381.384 423.318 372.414 436.05 359.49 443.382C351.756 447.762 344.73 450 334.998 450C334.992 450 332.502 450 332.496 450C305.544 450 273.204 432.54 240 402.834C206.79 432.57 173.79 450.018 146.838 450.018C137.1 450.018 128.244 447.798 120.522 443.424C107.574 436.074 98.592 423.33 93.834 405.54C86.694 383.238 88.134 353.922 96.438 321.066C41.112 302.574 6 273.414 6 240C6 206.592 41.112 177.426 96.432 158.934C92.31 140.58 89.676 123.54 89.586 108C89.514 95.724 91.188 84.306 93.828 74.46C98.592 56.664 107.568 43.92 120.516 36.576C128.232 32.196 137.088 29.982 146.826 29.982ZM113.748 153.684C134.61 147.954 157.776 143.622 182.646 140.982C196.938 121.722 211.896 104.406 226.962 89.478C197.73 63.402 169.266 47.976 146.826 47.976C140.232 47.976 134.376 49.404 129.402 52.23C120.804 57.108 114.69 66.15 111.216 79.116C106.068 98.328 107.238 124.296 113.748 153.684ZM366.234 153.678C372.744 124.29 373.914 98.316 368.766 79.104C365.298 66.162 359.184 57.138 350.604 52.272C345.624 49.446 339.75 48.018 333.162 48.018C310.74 48.018 282.294 63.426 253.068 89.478C268.128 104.406 283.068 121.722 297.348 140.976C322.206 143.616 345.372 147.948 366.234 153.678ZM206.862 138.996C217.674 138.354 228.516 137.796 239.79 137.796C251.064 137.796 262.32 138.36 273.132 138.996C262.284 125.322 251.148 112.83 240.006 101.772C228.864 112.83 217.722 125.322 206.862 138.996ZM240 324C256.566 324 272.424 323.274 287.508 321.948C296.622 309.246 305.436 295.758 313.74 281.634C321.858 267.84 329.202 253.878 335.76 240C329.202 226.122 321.858 212.166 313.746 198.378C305.436 184.248 296.628 170.766 287.508 158.064C272.43 156.726 256.572 156 240 156C223.428 156 207.564 156.726 192.48 158.058C183.354 170.76 174.534 184.248 166.224 198.372C158.112 212.166 150.768 226.128 144.21 240.006C150.768 253.884 158.106 267.84 166.218 281.628C174.528 295.752 183.342 309.24 192.462 321.942C207.552 323.274 223.422 324 240 324ZM345.276 218.478C352.026 202.224 357.612 186.264 361.872 171C346.554 166.788 329.634 163.308 311.304 160.758C317.472 169.92 323.478 179.418 329.256 189.246C334.98 198.96 340.302 208.728 345.276 218.478ZM134.694 218.484C139.662 208.734 144.99 198.966 150.702 189.246C156.486 179.418 162.498 169.926 168.672 160.764C150.342 163.308 133.422 166.794 118.104 171.006C122.364 186.27 127.95 202.224 134.694 218.484ZM379.128 303.732C427.584 287.316 456 263.196 456 240C456 216.804 427.584 192.684 379.128 176.268C373.41 196.698 365.514 218.166 355.608 239.994C365.514 261.828 373.41 283.296 379.128 303.732ZM100.86 303.726C106.572 283.302 114.462 261.834 124.368 240.012C114.462 218.184 106.566 196.71 100.854 176.28C52.404 192.696 24 216.81 24 240C24 263.196 52.41 287.31 100.86 303.726ZM311.304 319.242C329.634 316.698 346.554 313.218 361.872 309C357.606 293.736 352.02 277.776 345.276 261.516C340.302 271.266 334.974 281.034 329.256 290.754C323.478 300.582 317.472 310.08 311.304 319.242ZM168.654 319.236C162.486 310.074 156.48 300.582 150.696 290.76C144.984 281.046 139.662 271.284 134.694 261.54C127.95 277.788 122.37 293.742 118.11 309C133.422 313.206 150.336 316.686 168.654 319.236ZM146.844 432.018C169.278 432.018 197.73 416.598 226.956 390.534C211.878 375.6 196.926 358.278 182.628 339.012C157.77 336.378 134.616 332.046 113.76 326.316C107.256 355.704 106.086 381.672 111.228 400.884C114.696 413.844 120.816 422.886 129.408 427.764C134.376 430.59 140.25 432.018 146.844 432.018ZM333.162 431.982C339.756 431.982 345.618 430.554 350.604 427.728C359.184 422.862 365.286 413.838 368.748 400.89C373.896 381.672 372.726 355.704 366.222 326.322C345.36 332.052 322.2 336.384 297.336 339.018C283.056 358.278 268.11 375.594 253.05 390.528C282.276 416.568 310.728 431.976 333.162 431.982ZM240 378.24C251.142 367.176 262.278 354.678 273.132 341.004C262.326 341.646 251.778 343.002 240.498 343.002C229.212 343.002 217.656 341.646 206.844 341.004C217.704 354.684 228.852 367.182 240 378.24ZM144.696 24.432C133.902 24.432 126.186 26.46 117.558 31.35C103.164 39.516 93.228 53.496 88.032 72.906C82.272 94.428 82.77 122.718 89.448 154.992C32.514 175.134 0 205.95 0 240C0 274.056 32.52 304.866 89.454 325.008C82.776 357.282 82.278 385.572 88.044 407.094C93.234 426.492 103.164 440.472 117.57 448.65C126.21 453.546 136.59 455.628 147.378 455.628C174.3 455.628 205.896 440.418 240.006 410.832C274.11 440.388 306.24 455.976 333.156 455.982C343.95 455.982 353.802 453.504 362.442 448.608C376.824 440.454 386.748 426.492 391.938 407.106C397.704 385.578 397.206 357.288 390.528 325.02C447.474 304.872 480 274.056 480 240C480 205.944 447.48 175.128 390.534 154.986C397.218 122.706 397.71 94.416 391.944 72.894C386.748 53.508 376.818 39.546 362.43 31.392C353.796 26.502 343.944 24.018 333.156 24.018C306.246 24.018 274.122 39.612 240.012 69.18C205.896 39.588 173.616 24.414 146.688 24.414L144.696 24.432ZM118.32 146.262C115.548 132.318 113.688 119.25 113.586 107.79C113.496 97.47 114.912 88.488 117.006 80.664C120.048 69.312 125.214 61.5 132.36 57.444C136.416 55.14 141.36 53.58 146.898 53.58C165.984 53.58 191.1 66.648 218.196 89.784C204.87 103.422 191.844 118.698 179.4 135.294C157.89 137.694 137.382 141.372 118.32 146.262ZM261.828 89.796C288.918 66.678 314.094 54.018 333.156 54.018C338.7 54.018 343.578 55.188 347.64 57.492C354.774 61.536 359.934 69.33 362.97 80.658C368.214 97.566 367.536 120.042 361.662 146.256C342.6 141.372 322.098 137.688 300.594 135.3C288.156 118.71 275.142 103.434 261.828 89.796ZM220.038 132.36C226.614 124.56 233.292 117.18 240.006 110.292C246.72 117.18 253.392 124.56 259.962 132.36C253.248 132.12 246.57 132 240 132C233.43 132 226.758 132.12 220.038 132.36ZM195.75 163.8C210.18 162.606 225.048 161.754 240 161.754C254.946 161.754 269.814 162.606 284.238 163.8C292.83 175.914 301.014 188.556 308.574 201.414C315.906 213.882 322.812 226.848 329.112 239.994C322.806 253.146 315.9 266.118 308.568 278.586C301.002 291.45 292.824 304.086 284.232 316.2C269.814 317.394 254.946 318.996 240 318.996C225.042 318.996 210.168 317.388 195.732 316.194C187.134 304.086 178.95 291.444 171.384 278.58C164.052 266.118 157.152 253.152 150.852 240C157.152 226.848 164.058 213.876 171.39 201.408C178.962 188.55 187.152 175.908 195.75 163.8ZM344.532 204.144C341.238 198.036 337.86 192.036 334.434 186.204C331.014 180.39 327.432 174.552 323.724 168.75C334.368 170.562 344.634 172.728 354.408 175.23C351.606 184.626 348.3 194.298 344.532 204.144ZM125.568 175.23C135.342 172.728 145.608 170.562 156.252 168.75C152.538 174.552 148.956 180.39 145.536 186.198C142.11 192.03 138.732 198.03 135.438 204.138C131.67 194.304 128.37 184.632 125.568 175.23ZM362.19 239.994C370.68 221.022 377.712 202.242 383.13 184.038C424.548 199.152 450 220.326 450 240C450 259.674 424.548 280.848 383.13 295.962C377.706 277.752 370.68 258.966 362.19 239.994ZM96.852 295.956C55.446 280.842 30 259.668 30 240C30 220.332 55.446 199.158 96.846 184.044C102.264 202.254 109.29 221.034 117.78 240.006C109.296 258.972 102.27 277.752 96.852 295.956ZM323.718 311.256C327.426 305.448 331.014 299.61 334.428 293.802C337.86 287.97 341.238 281.964 344.532 275.856C348.3 285.702 351.6 295.38 354.408 304.782C344.628 307.272 334.362 309.444 323.718 311.256ZM125.574 304.77C128.376 295.374 131.676 285.708 135.438 275.874C138.726 281.976 142.104 287.976 145.53 293.802C148.944 299.61 152.526 305.442 156.24 311.25C145.602 309.432 135.342 307.266 125.574 304.77ZM146.844 426.018C141.3 426.018 136.428 424.848 132.366 422.544C125.226 418.488 120.06 410.682 117.024 399.33C112.038 382.26 112.602 359.778 118.332 333.732C137.388 338.616 157.884 342.3 179.382 344.688C191.832 361.284 204.858 376.566 218.19 390.216C191.1 413.358 165.918 426.024 146.844 426.018ZM300.588 344.7C322.092 342.306 342.594 338.628 361.656 333.744C368.286 362.184 368.808 384.852 362.958 399.336C359.928 410.67 354.774 418.464 347.646 422.502C343.578 424.806 338.706 425.976 333.168 425.976C314.088 425.976 288.9 413.316 261.816 390.21C275.136 376.572 288.15 361.296 300.588 344.7ZM240 369.72C233.28 362.832 226.596 355.446 220.02 347.64C226.74 347.88 233.424 348 240 348C246.57 348 253.248 347.88 259.962 347.64C253.392 355.446 246.714 362.832 240 369.72Z" fill="#868E96"/>
</svg>
