<svg xmlns="http://www.w3.org/2000/svg" version="1.1" xmlns:xlink="http://www.w3.org/1999/xlink" xmlns:svgjs="http://svgjs.com/svgjs" width="512" height="512" x="0" y="0" viewBox="0 0 512 512" style="enable-background:new 0 0 512 512" xml:space="preserve" class=""><g><path d="M227.9 270.06c0 20.56-14.73 37.29-33.25 37.29-18.23 0-33.25-16.73-33.25-37.29 0-20.55 14.73-37.29 33.25-37.29 18.66 0 33.54 16.89 33.25 37.29zM350.83 270.06c0 20.56-14.58 37.29-33.25 37.29-18.23 0-33.25-16.73-33.25-37.29 0-20.55 14.73-37.29 33.25-37.29 18.67 0 33.54 16.89 33.25 37.29z" fill="#5865f2" data-original="#000000" class=""></path><path d="M256 0C114.62 0 0 114.62 0 256s114.62 256 256 256 256-114.62 256-256S397.38 0 256 0zm182.91 350.25c-31.64 23.24-62.3 37.35-92.53 46.7-.48.15-1-.03-1.3-.44-6.98-9.72-13.32-19.97-18.88-30.73-.32-.63-.03-1.39.63-1.64 10.07-3.81 19.65-8.36 28.87-13.74.73-.43.77-1.47.1-1.97-1.95-1.45-3.89-2.98-5.74-4.51a1.14 1.14 0 0 0-1.21-.15c-59.84 27.65-125.39 27.65-185.94 0-.39-.17-.86-.11-1.19.17-1.85 1.52-3.79 3.04-5.73 4.49-.67.5-.62 1.54.11 1.97 9.22 5.28 18.8 9.93 28.86 13.75.66.25.97 1 .64 1.63-5.43 10.78-11.78 21.02-18.89 30.74-.31.4-.82.58-1.3.43-30.09-9.35-60.74-23.46-92.39-46.7-.26-.21-.45-.53-.48-.87-6.44-69.03 6.7-138.92 54.66-210.58.12-.19.29-.34.5-.42a303.91 303.91 0 0 1 75.3-23.36c.48-.07.96.15 1.21.57 3.27 5.79 7 13.2 9.53 19.26 27.85-4.25 56.14-4.25 84.58 0 2.52-5.93 6.12-13.47 9.37-19.26.25-.44.73-.66 1.21-.57a304.855 304.855 0 0 1 75.31 23.36c.21.08.38.23.48.44 41.78 61.45 62.42 130.77 54.7 210.58-.03.34-.2.64-.48.85z" fill="#5865f2" data-original="#000000" class=""></path></g></svg>