<svg width="512" height="512" viewBox="0 0 512 512" fill="none" xmlns="http://www.w3.org/2000/svg">
<g clip-path="url(#clip0_1_14)">
<path d="M512 256C512 383.78 418.38 489.69 296 508.89V330H355.65L367 256H296V207.98C296 187.73 305.92 168 337.72 168H370V105C370 105 340.7 100 312.69 100C254.22 100 216 135.44 216 199.6V256H151V330H216V508.89C93.62 489.69 0 383.78 0 256C0 114.62 114.62 0 256 0C397.38 0 512 114.62 512 256Z" fill="black"/>
<path d="M355.65 330L367 256H296V207.979C296 187.734 305.918 168 337.719 168H370V105C370 105 340.704 100 312.695 100C254.219 100 216 135.44 216 199.6V256H151V330H216V508.889C229.034 510.934 242.392 512 256 512C269.608 512 282.966 510.934 296 508.889V330H355.65Z" fill="white"/>
</g>
<defs>
<clipPath id="clip0_1_14">
<rect width="512" height="512" fill="white"/>
</clipPath>
</defs>
</svg>
