<svg width="512" height="512" viewBox="0 0 512 512" fill="none" xmlns="http://www.w3.org/2000/svg">
<g clip-path="url(#clip0_1_18)">
<path d="M255.999 0C397.392 0 512 114.624 512 256.001C512 397.378 397.392 512 255.999 512C114.606 512 0 397.376 0 256.001C0 114.626 114.608 0 255.999 0Z" fill="black"/>
<path d="M144.256 351.744H192.192V191.967H144.256V351.744ZM331.008 186.433C307.744 186.433 286.928 194.929 272.161 213.681V191.442H224.049V351.745H272.161V265.057C272.161 246.737 288.946 228.865 309.969 228.865C330.993 228.865 336.177 246.737 336.177 264.609V351.73H384.114V261.041C384.112 198.048 354.289 186.433 331.008 186.433ZM168 176C181.248 176 192.001 165.248 192.001 151.999C192.001 138.751 181.248 128 168 128C154.752 128 143.999 138.753 143.999 152.001C143.999 165.249 154.752 176 168 176Z" fill="white"/>
</g>
<defs>
<clipPath id="clip0_1_18">
<rect width="512" height="512" fill="white"/>
</clipPath>
</defs>
</svg>
