<svg width="512" height="512" viewBox="0 0 512 512" fill="none" xmlns="http://www.w3.org/2000/svg">
<g clip-path="url(#clip0_1_22)">
<path d="M256 512C397.385 512 512 397.385 512 256C512 114.615 397.385 0 256 0C114.615 0 0 114.615 0 256C0 397.385 114.615 512 256 512Z" fill="black"/>
<path d="M179.327 294.778L321.992 325.083L327.967 296.255L185.303 265.729L179.327 294.778ZM176.167 332.48H321.978V361.832H176.167V332.48ZM198.04 225.668L330.134 288.127L342.374 261.299L210.212 198.675L198.04 225.668ZM330.147 288.14L330.134 288.127L330.12 288.14H330.147Z" fill="white"/>
<path d="M118 302.92V421.2H380.09V302.92H350.93V391.627H147.159V302.92H118Z" fill="white"/>
<path d="M234.651 159.869L346.556 254.717L365.13 231.947L253.226 137.099L234.651 159.869ZM394 208.501L307.032 90L283.697 107.747L370.664 226.247L394 208.501Z" fill="white"/>
</g>
<defs>
<clipPath id="clip0_1_22">
<rect width="512" height="512" fill="white"/>
</clipPath>
</defs>
</svg>
