<svg xmlns="http://www.w3.org/2000/svg" version="1.1" xmlns:xlink="http://www.w3.org/1999/xlink" xmlns:svgjs="http://svgjs.com/svgjs" width="512" height="512" x="0" y="0" viewBox="0 0 512 512" style="enable-background:new 0 0 512 512" xml:space="preserve" class=""><g><linearGradient id="a" x1="-42.884" x2="-26.523" y1="631.498" y2="615.137" gradientTransform="matrix(21.3333 0 0 -21.3333 996.333 13553.445)" gradientUnits="userSpaceOnUse"><stop stop-opacity="1" stop-color="#42445a" offset="0"></stop><stop stop-opacity="1" stop-color="#1122dc" offset="0"></stop></linearGradient><path d="M384.704 181.845c17.707-49.664 24.853-92.501 17.835-118.699-3.328-12.437-9.579-21.333-18.603-26.496-5.419-3.093-11.605-4.65-18.411-4.65-28.373 0-68.33 29.013-109.525 76.757C214.784 61.013 174.827 32 146.453 32c-6.805 0-12.992 1.557-18.411 4.651-9.024 5.163-15.296 14.059-18.603 26.496-7.04 26.197.107 69.035 17.813 118.699C54.976 195.179 0 220.245 0 256s54.997 60.821 127.275 74.155c-17.707 49.664-24.832 92.501-17.835 118.699 3.328 12.437 9.579 21.333 18.603 26.496 5.44 3.093 11.627 4.651 18.432 4.651 28.352 0 68.331-29.013 109.525-76.757C297.216 450.987 337.173 480 365.547 480c6.805 0 12.992-1.557 18.411-4.651 9.024-5.163 15.296-14.059 18.603-26.496 7.019-26.197-.107-69.035-17.813-118.699C457.024 316.821 512 291.755 512 256s-54.997-60.821-127.296-74.155zM365.525 53.333c3.115 0 5.653.597 7.829 1.835 3.904 2.24 6.784 6.763 8.576 13.483 6.144 22.891-1.323 62.912-18.496 109.653a707.39 707.39 0 0 0-59.584-6.165c-11.179-16.725-22.571-32.341-33.963-46.613 39.468-46.294 75.329-72.193 95.638-72.193zm-25.194 225.92c5.589 11.648 10.709 23.083 15.296 34.261-11.733 1.621-24.277 2.923-37.355 3.989a817.28 817.28 0 0 0 11.563-19.2c3.733-6.378 7.018-12.714 10.496-19.05zm-28.886 8.299c-6.443 11.029-12.971 21.483-19.541 31.573-11.605.512-23.467.875-35.904.875-12.437 0-24.32-.363-35.925-.875-6.549-10.091-13.099-20.544-19.541-31.573-6.144-10.517-11.904-21.056-17.387-31.509 5.483-10.475 11.243-21.035 17.408-31.573 6.443-11.029 12.971-21.483 19.541-31.573 11.605-.534 23.467-.897 35.904-.897 12.437 0 24.32.363 35.925.875 6.549 10.091 13.099 20.544 19.541 31.573 6.144 10.517 11.904 21.056 17.387 31.509a790.246 790.246 0 0 1-17.408 31.595zm-34.282 53.461A644.658 644.658 0 0 1 256 369.45a661.414 661.414 0 0 1-21.184-28.416c7.083.171 14.144.299 21.184.299 7.04 0 14.101-.128 21.163-.32zm-95.04-42.73a895.935 895.935 0 0 0 11.563 19.2c-13.035-1.045-25.579-2.347-37.291-3.968 4.587-11.157 9.707-22.571 15.275-34.219 3.477 6.336 6.741 12.651 10.453 18.987zm-10.454-65.536c-5.589-11.648-10.709-23.083-15.296-34.261 11.733-1.621 24.277-2.923 37.333-3.968a751.322 751.322 0 0 0-11.563 19.2c-3.711 6.357-6.996 12.693-10.474 19.029zm63.168-61.76A644.658 644.658 0 0 1 256 142.55a644.294 644.294 0 0 1 21.163 28.416c-7.061-.171-14.123-.299-21.163-.299-7.04 0-14.101.128-21.163.32zm95.04 42.73a895.935 895.935 0 0 0-11.563-19.2c13.035 1.045 25.579 2.347 37.291 3.968-4.587 11.157-9.707 22.571-15.275 34.219-3.477-6.336-6.741-12.651-10.453-18.987zM130.048 68.672c1.792-6.72 4.693-11.264 8.576-13.483 2.197-1.259 4.736-1.856 7.829-1.856 20.309 0 56.171 25.899 95.659 72.213-11.392 14.272-22.763 29.888-33.941 46.613-20.395 1.259-40.427 3.349-59.627 6.187-17.195-46.762-24.64-86.762-18.496-109.674zM21.333 256c0-18.176 41.344-41.195 113.451-54.08 6.997 17.515 15.168 35.627 24.512 54.101-9.323 18.475-17.493 36.565-24.491 54.059C62.699 297.195 21.333 274.176 21.333 256zm125.142 202.667c-3.115 0-5.653-.597-7.829-1.835-3.904-2.24-6.784-6.763-8.576-13.483-6.144-22.891 1.323-62.912 18.496-109.653a707.39 707.39 0 0 0 59.584 6.165c11.179 16.725 22.571 32.341 33.963 46.613-39.468 46.273-75.329 72.193-95.638 72.193zm235.477-15.339c-1.792 6.72-4.693 11.264-8.576 13.483-2.197 1.259-4.736 1.856-7.829 1.856-20.309 0-56.171-25.92-95.659-72.213 11.392-14.272 22.763-29.888 33.941-46.613 20.395-1.259 40.427-3.349 59.627-6.187 17.195 46.762 24.64 86.762 18.496 109.674zm-4.736-133.248c-6.997-17.515-15.168-35.627-24.512-54.101 9.323-18.475 17.493-36.565 24.491-54.059 72.107 12.885 113.472 35.904 113.472 54.08 0 18.176-41.344 41.195-113.451 54.08z" style="fill:url(#a);" fill=""></path><linearGradient id="b" x1="-36.118" x2="-33.289" y1="624.73" y2="621.905" gradientTransform="matrix(21.3333 0 0 -21.3333 996.333 13553.445)" gradientUnits="userSpaceOnUse"><stop stop-opacity="1" stop-color="#42445a" offset="0"></stop><stop stop-opacity="1" stop-color="#1122dc" offset="0"></stop></linearGradient><path d="M256 213.333c-23.531 0-42.667 19.136-42.667 42.667s19.136 42.667 42.667 42.667c23.509 0 42.667-19.136 42.667-42.667S279.509 213.333 256 213.333zm0 64c-11.776 0-21.333-9.579-21.333-21.333 0-11.755 9.557-21.333 21.333-21.333s21.333 9.579 21.333 21.333c0 11.755-9.557 21.333-21.333 21.333z" style="fill:url(#b);" fill=""></path></g></svg>